<?xml version="1.0" encoding="UTF-8" standalone="no"?>
<svg xmlns="http://www.w3.org/2000/svg" width="100" height="50" viewBox="0 0 120 60">
  <path fill="#0070f2" d="M73.54,0H46.46A46.46,46.46,0,0,0,0,46.46V60H120V46.46A46.46,46.46,0,0,0,73.54,0ZM36.78,40.5a12.92,12.92,0,0,1-5.28,1.1c-6.54,0-10.9-4.94-10.9-10.9s4.36-10.9,10.9-10.9a12.92,12.92,0,0,1,5.28,1.1V25a8.91,8.91,0,0,0-5.28-1.68c-4.07,0-7.41,3.49-7.41,7.41s3.34,7.41,7.41,7.41A8.91,8.91,0,0,0,36.78,36.5Zm16.86,1.1c-6.54,0-10.9-4.94-10.9-10.9s4.36-10.9,10.9-10.9,10.9,4.94,10.9,10.9S60.18,41.6,53.64,41.6Zm0-18.31c-4.07,0-7.41,3.49-7.41,7.41s3.34,7.41,7.41,7.41,7.41-3.49,7.41-7.41S57.71,23.29,53.64,23.29ZM99.5,41.6c-6.54,0-10.9-4.94-10.9-10.9s4.36-10.9,10.9-10.9,10.9,4.94,10.9,10.9S106,41.6,99.5,41.6Zm0-18.31c-4.07,0-7.41,3.49-7.41,7.41s3.34,7.41,7.41,7.41,7.41-3.49,7.41-7.41S103.57,23.29,99.5,23.29ZM83.22,41.6a12.92,12.92,0,0,1-5.28-1.1V36.5a8.91,8.91,0,0,0,5.28,1.68c4.07,0,7.41-3.49,7.41-7.41s-3.34-7.41-7.41-7.41a8.91,8.91,0,0,0-5.28,1.68V21a12.92,12.92,0,0,1,5.28-1.1c6.54,0,10.9,4.94,10.9,10.9S89.76,41.6,83.22,41.6Z"/>
</svg>